<mxfile host="app.diagrams.net" modified="2023-04-07T16:13:50.429Z" agent="5.0 (Windows NT 10.0; Win64; x64) AppleWebKit/537.36 (KHTML, like Gecko) Chrome/111.0.0.0 Safari/537.36" etag="cix4kI9Z41ljGlX13TdG" version="20.5.3" type="github">
  <diagram id="pgkB5IXj8RQIM3OsNyVG" name="Page-1">
    <mxGraphModel dx="1422" dy="766" grid="1" gridSize="10" guides="1" tooltips="1" connect="1" arrows="1" fold="1" page="1" pageScale="1" pageWidth="850" pageHeight="1100" math="0" shadow="0">
      <root>
        <mxCell id="0" />
        <mxCell id="1" parent="0" />
        <mxCell id="V3O5ubJocrIwiBx4Y_ym-1" value="Domain" style="rounded=0;whiteSpace=wrap;html=1;" vertex="1" parent="1">
          <mxGeometry x="365" y="360" width="120" height="60" as="geometry" />
        </mxCell>
        <mxCell id="V3O5ubJocrIwiBx4Y_ym-4" value="" style="edgeStyle=orthogonalEdgeStyle;rounded=0;orthogonalLoop=1;jettySize=auto;html=1;" edge="1" parent="1" source="V3O5ubJocrIwiBx4Y_ym-3" target="V3O5ubJocrIwiBx4Y_ym-1">
          <mxGeometry relative="1" as="geometry" />
        </mxCell>
        <mxCell id="V3O5ubJocrIwiBx4Y_ym-3" value="Appliccation" style="rounded=0;whiteSpace=wrap;html=1;" vertex="1" parent="1">
          <mxGeometry x="365" y="240" width="120" height="50" as="geometry" />
        </mxCell>
      </root>
    </mxGraphModel>
  </diagram>
</mxfile>
